# xmcd
#
# Track frame offsets:
#	150
#	12624
#	28546
#	43075
#	61547
#	80123
#	93370
#	105893
#	120025
#	135815
#	150488
#	165672
#	180718
#	193519
#	204286
#	218547
#	232811
#	248835
#	261866
#	275435
#
# Disc length: 3913 seconds
#
# Revision: 0
# Processed by: cddbd v1.5.2PL0 Copyright (c) Steve Scherf et al.
# Submitted via: EasyCDDAExtractor 15.3.0.1
#
DISCID=f00f4714
DTITLE=Robbins Marty - Legend-Some Memories Just Won't Die
DYEAR=1900
DGENRE=
TTITLE0=Jumper Cable Man
TTITLE1=Lady I Love You
TTITLE2=It's Not Too Bad
TTITLE3=Good Hearted Woman
TTITLE4=Air That I Breathe
TTITLE5=My All Time High
TTITLE6=Honeycomb
TTITLE7=Simple Little Love Song
TTITLE8=I'm Here To Get My Baby Out Of Jail
TTITLE9=Teardrops In My Heart
TTITLE10=Some Memories Just Won't Die
TTITLE11=It's Not All Over
TTITLE12=American Dream
TTITLE13=Here Your Memory Comes Again
TTITLE14=First Song That Wasn't The Blues
TTITLE15=Prayin' For Rain
TTITLE16=That's All She Wrote
TTITLE17=Tie Your Dreams To Mine
TTITLE18=If Her Blue Eyes Don't Get You
TTITLE19=Lover Lover
EXTD=
EXTT0=
EXTT1=
EXTT2=
EXTT3=
EXTT4=
EXTT5=
EXTT6=
EXTT7=
EXTT8=
EXTT9=
EXTT10=
EXTT11=
EXTT12=
EXTT13=
EXTT14=
EXTT15=
EXTT16=
EXTT17=
EXTT18=
EXTT19=
PLAYORDER=
